<svg width="42" height="43" viewBox="0 0 42 43" fill="none" xmlns="http://www.w3.org/2000/svg">
<path d="M21.1482 0.730957C9.72024 0.730957 0.457952 9.99324 0.457952 21.4212C0.457952 26.2689 2.12384 30.7334 4.92251 34.2484L0.557901 40.7787C0.0747965 41.5116 0.757814 42.4612 1.60741 42.2113L11.1029 39.5126C14.0848 41.1618 17.4999 42.1114 21.1482 42.1114C32.5761 42.1114 41.8383 32.8491 41.8383 21.4212C41.8383 10.0099 32.5761 0.730957 21.1482 0.730957ZM28.9111 24.2365H23.8802V29.2674C23.8802 30.7834 22.6475 31.9995 21.1482 31.9995C19.6322 31.9995 18.4161 30.7667 18.4161 29.2674V24.2365H13.3852C11.8692 24.2365 10.6531 23.0037 10.6531 21.5044C10.6531 19.9885 11.8859 18.7724 13.3852 18.7724H18.4161V13.7415C18.4161 12.2255 19.6489 11.0094 21.1482 11.0094C22.6641 11.0094 23.8802 12.2422 23.8802 13.7415V18.7724H28.9111C30.4271 18.7724 31.6432 20.0052 31.6432 21.5044C31.6432 23.0204 30.4271 24.2365 28.9111 24.2365Z" fill="#010100"/>
</svg>
