<svg width="43" height="43" viewBox="0 0 43 43" fill="none" xmlns="http://www.w3.org/2000/svg">
<path d="M21.4953 0C9.65659 0 0.0663614 9.59591 0.0663614 21.429C0.0663614 26.4484 1.79817 31.059 4.6883 34.7156L0.168566 41.4725C-0.336781 42.2334 0.372976 43.21 1.25307 42.9602L9.79854 40.5299V26.6698L9.19667 27.1297C8.86734 27.3853 8.39039 27.3228 8.13488 26.9878C7.87936 26.6585 7.94182 26.1815 8.27683 25.926L21.4613 15.8134C21.7338 15.6033 22.1086 15.6033 22.3811 15.8134L27.5992 19.788V18.1982C27.5992 17.8575 27.8775 17.5793 28.2182 17.5793H31.7442C32.0849 17.5793 32.3631 17.8575 32.3631 18.1982V23.4106L35.6678 25.926C36.0028 26.1815 36.0652 26.6528 35.8097 26.9821C35.6621 27.1752 35.435 27.2774 35.2078 27.2774C35.0489 27.2774 34.8899 27.2263 34.7536 27.1241L34.0495 26.5903V38.7811C39.421 34.886 42.9186 28.5663 42.9186 21.4233C42.9186 9.59591 33.3284 0 21.4953 0Z" fill="black"/>
</svg>
