<svg width="45" height="43" viewBox="0 0 45 43" fill="none" xmlns="http://www.w3.org/2000/svg">
<path d="M43.8569 41.7577L40.1769 36.2518C42.5366 33.2741 43.9412 29.5239 43.9412 25.4366C43.9412 19.9167 41.3849 15.0148 37.3819 11.8124C37.9015 13.6102 38.1965 15.4923 38.1965 17.4587C38.1965 28.5688 29.1652 37.6002 18.0551 37.6002C16.51 37.6002 14.9791 37.4176 13.4902 37.0664C16.6786 40.634 21.3277 42.8813 26.4965 42.8813C29.5725 42.8813 32.4659 42.0807 34.966 40.6902L42.972 42.9656C43.6883 43.1763 44.2642 42.3757 43.8569 41.7577Z" fill="black"/>
<path d="M18.0543 0C8.41897 0 0.609593 7.80937 0.609593 17.4447C0.609593 21.532 2.01416 25.2962 4.37382 28.2598L0.693867 33.7657C0.286544 34.3837 0.862417 35.1843 1.57874 34.9736L9.58475 32.6982C12.0989 34.0888 14.9783 34.8894 18.0543 34.8894C27.6896 34.8894 35.4989 27.08 35.4989 17.4447C35.4989 7.82342 27.6896 0 18.0543 0Z" fill="black"/>
</svg>
