<svg width="44" height="43" viewBox="0 0 44 43" fill="none" xmlns="http://www.w3.org/2000/svg">
<path d="M22.1159 0.730957C10.688 0.730957 1.42572 9.99324 1.42572 21.4212C1.42572 26.2689 3.0916 30.7334 5.89028 34.2484L1.52568 40.7787C1.04257 41.5116 1.72558 42.4612 2.57518 42.2113L12.0707 39.5126C15.0526 41.1618 18.4676 42.1114 22.1159 42.1114C33.5438 42.1114 42.8061 32.8491 42.8061 21.4212C42.8061 10.0099 33.5438 0.730957 22.1159 0.730957ZM22.0826 7.56106C26.0474 7.56106 29.2625 10.7762 29.2625 14.741C29.2625 18.7058 26.0474 21.9209 22.0826 21.9209C18.1178 21.9209 14.9027 18.7058 14.9027 14.741C14.9027 10.7762 18.1178 7.56106 22.0826 7.56106ZM22.1159 37.4636C17.8513 37.4636 13.8865 36.1642 10.5714 33.9652C10.3382 33.7986 10.2049 33.5321 10.2382 33.2489C10.9879 27.385 16.0021 22.8538 22.0659 22.8538C28.1464 22.8538 33.1607 27.4017 33.9103 33.2989C33.9436 33.5821 33.8104 33.8653 33.5772 34.0152C30.2954 36.1975 26.3639 37.4636 22.1159 37.4636Z" fill="black"/>
</svg>
