<svg width="43" height="43" viewBox="0 0 43 43" fill="none" xmlns="http://www.w3.org/2000/svg">
<g clip-path="url(#clip0)">
<path d="M21.7937 0.730957C10.3657 0.730957 1.10346 9.99323 1.10346 21.4212C1.10346 26.2689 2.76933 30.7334 5.56801 34.2484L1.20341 40.7953C0.720305 41.5283 1.40332 42.4778 2.25291 42.228L11.7484 39.5292C14.7303 41.1785 18.1454 42.128 21.7937 42.128C33.2216 42.128 42.4838 32.8657 42.4838 21.4378C42.5005 10.0099 33.2216 0.730957 21.7937 0.730957ZM21.7603 35.9809C13.7641 35.9809 7.28386 29.5007 7.28386 21.5044C7.28386 13.5082 13.7641 7.02797 21.7603 7.02797C29.7565 7.02797 36.2368 13.5082 36.2368 21.5044C36.2368 29.5007 29.7565 35.9809 21.7603 35.9809Z" fill="black"/>
<path d="M31.2225 23.1037C30.3396 23.1037 29.6233 22.3874 29.6233 21.5045C29.6233 20.7049 29.5067 19.9386 29.2734 19.1889C29.0069 18.3393 28.6071 17.5564 28.0907 16.84C27.3244 15.7905 26.2915 14.9576 25.1254 14.4078C24.0759 13.9081 22.9431 13.6582 21.7603 13.6582C20.0445 13.6582 18.4119 14.2079 17.0459 15.2241C16.3462 15.7572 15.3467 15.6073 14.8136 14.9076C14.2805 14.2079 14.4305 13.2084 15.1301 12.6753C17.0626 11.226 19.3448 10.4597 21.7603 10.4597C23.4095 10.4597 25.0088 10.8096 26.4914 11.5259C28.124 12.3088 29.5733 13.4916 30.6561 14.9576C31.4058 15.9571 31.9555 17.0733 32.322 18.2727C32.6385 19.3222 32.8051 20.4217 32.8051 21.5378C32.8218 22.3874 32.1054 23.1037 31.2225 23.1037Z" fill="black"/>
</g>
<defs>
<clipPath id="clip0">
<rect width="42" height="43" fill="white" transform="translate(0.918945)"/>
</clipPath>
</defs>
</svg>
